<svg width="29" height="29" viewBox="0 0 29 29" fill="none" xmlns="http://www.w3.org/2000/svg">
<g clip-path="url(#clip0_2_258)">
<path d="M23.4125 15.0027L10.6054 23.5408C10.5144 23.6013 10.4087 23.636 10.2995 23.6412C10.1904 23.6465 10.0818 23.622 9.9855 23.5704C9.88916 23.5188 9.80861 23.4421 9.75243 23.3483C9.69626 23.2546 9.66656 23.1474 9.6665 23.0381V5.96192C9.66656 5.85263 9.69626 5.74541 9.75243 5.65167C9.80861 5.55793 9.88916 5.48118 9.9855 5.4296C10.0818 5.37802 10.1904 5.35353 10.2995 5.35875C10.4087 5.36397 10.5144 5.39871 10.6054 5.45925L23.4125 13.9973C23.4952 14.0525 23.5631 14.1273 23.61 14.2149C23.6569 14.3026 23.6815 14.4005 23.6815 14.5C23.6815 14.5995 23.6569 14.6974 23.61 14.7851C23.5631 14.8727 23.4952 14.9475 23.4125 15.0027Z" fill="white"/>
</g>
<defs>
<clipPath id="clip0_2_258">
<rect width="29" height="29" fill="white"/>
</clipPath>
</defs>
</svg>
